<svg width="238" height="160" viewBox="0 0 238 160" fill="none" xmlns="http://www.w3.org/2000/svg">
<g clip-path="url(#clip0_1_10)">
<path d="M202.041 83.781C193.638 90.6489 183.117 94.3954 172.264 94.3838H47.1862C40.5736 94.3909 34.0337 93.0046 27.9927 90.3151C21.9518 87.6255 16.5454 83.6933 12.1259 78.7744V78.7744L20.2408 88.9428C24.6534 93.9107 30.0689 97.887 36.1301 100.61C42.1914 103.332 48.7609 104.739 55.4056 104.738H180.486C191.338 104.751 201.86 101.005 210.264 94.1384L202.041 83.781Z" fill="#539ECF"/>
<path d="M228.908 94.2738C218.961 94.2291 209.385 90.4884 202.041 83.7782L210.258 94.1299C214.69 98.102 219.918 101.083 225.594 102.874C229.326 104.041 233.214 104.635 237.124 104.637L228.908 94.2738Z" fill="#FF443B"/>
<path d="M229.579 82.0661C228.247 73.9619 227.607 65.7591 227.664 57.5464C227.674 47.6752 224.57 38.0524 218.793 30.0482L209.127 17.7051H209.107C215.821 26.0629 219.475 36.4656 219.462 47.1862C219.462 81.6599 228.919 94.2738 228.919 94.2738L237.133 104.631C237.133 104.631 232.352 98.186 229.59 82.0661" fill="#FFB351"/>
<path d="M228.908 94.2738C228.908 94.2738 219.45 81.6599 219.45 47.1834C219.45 34.6688 214.479 22.6669 205.63 13.8177C196.781 4.96859 184.779 -0.00280762 172.264 -0.00280762H47.1891C34.6737 -0.00280762 22.671 4.96888 13.8214 13.8185C4.97168 22.6682 0 34.6709 0 47.1863C0 59.7016 4.97168 71.7043 13.8214 80.554C22.671 89.4036 34.6737 94.3753 47.1891 94.3753H172.264C183.116 94.3877 193.638 90.6423 202.041 83.7754C209.385 90.4855 218.961 94.2263 228.908 94.2709" fill="#005191"/>
<path d="M84.1308 71.3251H50.8136V64.11L66.1662 47.9676C69.9496 43.6633 71.8413 40.2409 71.8413 37.7005C71.9578 36.0283 71.4814 34.3685 70.4959 33.0126C70.0116 32.4644 69.4083 32.0342 68.7322 31.7551C68.056 31.4759 67.325 31.3552 66.595 31.402C65.7862 31.3909 64.9875 31.5819 64.2714 31.9578C63.5552 32.3336 62.9441 32.8823 62.4938 33.5542C61.4026 35.123 60.8503 37.0036 60.9199 38.9133H49.8207C49.7994 36.0577 50.5592 33.2506 52.018 30.7956C53.4729 28.3314 55.5855 26.3213 58.119 24.9907C60.8048 23.5699 63.8051 22.8483 66.8432 22.8922C71.1185 22.6133 75.3515 23.8818 78.7688 26.4659C80.1925 27.753 81.3077 29.3445 82.0314 31.1221C82.7552 32.8996 83.0688 34.8175 82.949 36.733C82.9489 38.6143 82.5929 40.4786 81.8997 42.2276C81.0716 44.2371 79.9736 46.1245 78.6362 47.8378C76.4292 50.6081 74.0455 53.233 71.5 55.6961L65.3342 62.7871H84.1308V71.3251Z" fill="white"/>
<path d="M122.796 71.328H111.708V36.0335L100.82 39.2152V30.8153L121.781 23.5692H122.796V71.328Z" fill="white"/>
<path d="M167.367 71.328H156.282V36.0335L145.395 39.2152V30.8153L166.352 23.5692H167.37L167.367 71.328Z" fill="white"/>
<path d="M95.7461 56.9936C94.8898 56.9936 94.0527 56.7396 93.3407 56.2639C92.6287 55.7881 92.0738 55.112 91.7461 54.3208C91.4184 53.5297 91.3326 52.6591 91.4997 51.8192C91.6667 50.9794 92.0791 50.2079 92.6846 49.6024C93.2901 48.9969 94.0616 48.5845 94.9015 48.4175C95.7413 48.2504 96.6119 48.3361 97.403 48.6638C98.1942 48.9915 98.8704 49.5465 99.3461 50.2585C99.8219 50.9705 100.076 51.8076 100.076 52.6639C100.076 53.8122 99.6196 54.9135 98.8077 55.7255C97.9957 56.5374 96.8944 56.9936 95.7461 56.9936" fill="white"/>
<path d="M138.047 56.9936C137.191 56.9936 136.354 56.7396 135.642 56.2639C134.93 55.7881 134.375 55.112 134.047 54.3208C133.719 53.5297 133.634 52.6591 133.801 51.8192C133.968 50.9794 134.38 50.2079 134.986 49.6024C135.591 48.9969 136.363 48.5845 137.202 48.4175C138.042 48.2504 138.913 48.3361 139.704 48.6638C140.495 48.9915 141.171 49.5465 141.647 50.2585C142.123 50.9705 142.377 51.8076 142.377 52.6639C142.377 53.8122 141.921 54.9135 141.109 55.7255C140.297 56.5374 139.195 56.9936 138.047 56.9936" fill="white"/>
<path d="M45.7477 123.603L52.946 143.911L60.0991 123.603H67.6724V151.592H61.8845V143.939L62.4487 130.73L54.8922 151.603H50.9292L43.3953 130.764L43.9595 143.951V151.603H38.2138V123.614L45.7477 123.603Z" fill="#005191"/>
<path d="M84.3931 151.592C84.1105 151.003 83.9202 150.374 83.829 149.727C83.1735 150.466 82.3634 151.051 81.4561 151.441C80.5488 151.831 79.5668 152.016 78.5798 151.984C76.7263 152.053 74.9142 151.424 73.5027 150.221C72.8572 149.673 72.342 148.989 71.9945 148.217C71.6471 147.445 71.4763 146.605 71.4944 145.759C71.4447 144.775 71.6429 143.795 72.0706 142.908C72.4984 142.021 73.1421 141.255 73.9427 140.682C76.0648 139.367 78.5419 138.741 81.0338 138.89H83.5892V137.7C83.631 136.866 83.3672 136.046 82.8474 135.393C82.5468 135.084 82.1812 134.846 81.7773 134.697C81.3733 134.547 80.9411 134.489 80.5119 134.527C79.7214 134.48 78.9403 134.719 78.3118 135.201C78.0467 135.427 77.8368 135.71 77.6984 136.029C77.56 136.348 77.4968 136.695 77.5136 137.043H71.957C71.96 135.837 72.3561 134.664 73.0852 133.703C73.8935 132.624 74.9837 131.789 76.2359 131.289C77.6867 130.686 79.2458 130.388 80.8166 130.412C83.0171 130.296 85.1849 130.982 86.9176 132.344C87.6782 133.021 88.276 133.861 88.6667 134.802C89.0574 135.743 89.2309 136.759 89.1741 137.776V146.802C89.1012 148.339 89.384 149.872 90.0005 151.281V151.606L84.3931 151.592ZM79.8011 147.73C80.5882 147.73 81.3632 147.537 82.0576 147.166C82.7071 146.843 83.2432 146.331 83.5949 145.697V142.12H81.5189C78.7396 142.12 77.2598 143.082 77.0792 145.006L77.0623 145.33C77.0532 145.651 77.1139 145.971 77.24 146.266C77.3661 146.562 77.5547 146.826 77.7929 147.042C78.3471 147.524 79.0676 147.771 79.8011 147.73Z" fill="#005191"/>
<path d="M105.142 136.002C104.479 135.903 103.811 135.851 103.142 135.844C102.318 135.735 101.48 135.881 100.741 136.262C100.002 136.643 99.3982 137.242 99.0096 137.977V151.589H93.453V130.79H98.7022L98.8545 133.266C99.2826 132.403 99.944 131.678 100.764 131.172C101.583 130.666 102.528 130.399 103.492 130.403C104.077 130.4 104.66 130.485 105.221 130.657L105.142 136.002Z" fill="#005191"/>
<path d="M115.578 143.731L119.428 130.795H125.385L117.019 154.821L116.56 155.921C116.088 157.158 115.241 158.215 114.138 158.946C113.034 159.677 111.73 160.045 110.408 159.997C109.575 159.992 108.747 159.87 107.948 159.633V155.433L108.794 155.45C109.609 155.503 110.424 155.337 111.152 154.968C111.724 154.585 112.154 154.025 112.377 153.374L113.028 151.662L105.742 130.807H111.722L115.578 143.731Z" fill="#005191"/>
<path d="M133.452 151.595H127.867V122.06H133.452V151.595Z" fill="#005191"/>
<path d="M150.071 151.592C149.789 151.003 149.599 150.374 149.507 149.727C148.852 150.466 148.042 151.052 147.135 151.442C146.227 151.832 145.245 152.017 144.258 151.984C142.405 152.052 140.593 151.423 139.181 150.221C138.535 149.674 138.019 148.989 137.671 148.217C137.323 147.445 137.152 146.605 137.17 145.759C137.121 144.775 137.32 143.794 137.749 142.907C138.178 142.02 138.822 141.255 139.624 140.682C141.744 139.367 144.219 138.741 146.709 138.89H149.265V137.7C149.305 136.867 149.044 136.048 148.529 135.393C148.228 135.085 147.862 134.847 147.458 134.697C147.054 134.548 146.622 134.489 146.193 134.527C145.401 134.481 144.618 134.72 143.987 135.201C143.722 135.427 143.512 135.71 143.374 136.029C143.235 136.348 143.172 136.695 143.189 137.043H137.632C137.635 135.837 138.032 134.664 138.761 133.703C139.57 132.626 140.66 131.791 141.911 131.289C143.362 130.687 144.921 130.389 146.492 130.412C148.693 130.295 150.861 130.981 152.593 132.344C153.354 133.021 153.952 133.861 154.342 134.802C154.733 135.743 154.906 136.759 154.85 137.776V146.802C154.773 148.339 155.054 149.872 155.67 151.281V151.606L150.071 151.592ZM145.479 147.73C146.266 147.73 147.041 147.537 147.736 147.166C148.385 146.843 148.921 146.331 149.273 145.697V142.12H147.197C144.418 142.12 142.938 143.082 142.758 145.006L142.741 145.33C142.732 145.651 142.792 145.971 142.918 146.266C143.044 146.562 143.233 146.826 143.471 147.042C144.025 147.524 144.746 147.771 145.479 147.73Z" fill="#005191"/>
<path d="M164.239 130.792L164.414 133.196C165.121 132.295 166.03 131.574 167.067 131.092C168.105 130.609 169.242 130.378 170.386 130.417C171.299 130.346 172.217 130.484 173.068 130.82C173.92 131.157 174.684 131.684 175.302 132.361C176.502 134.049 177.086 136.098 176.958 138.166V151.606H171.401V138.287C171.483 137.364 171.207 136.445 170.631 135.72C170.279 135.422 169.872 135.198 169.432 135.061C168.992 134.924 168.528 134.876 168.07 134.922C167.356 134.893 166.648 135.065 166.026 135.419C165.405 135.772 164.896 136.293 164.555 136.922V151.589H158.999V130.79L164.239 130.792Z" fill="#005191"/>
<path d="M180.317 141.04C180.171 138.288 180.936 135.565 182.495 133.292C183.179 132.36 184.082 131.609 185.123 131.106C186.164 130.603 187.313 130.363 188.469 130.406C189.421 130.382 190.366 130.573 191.234 130.963C192.103 131.354 192.872 131.935 193.486 132.662V122.046H199.06V151.595H194.042L193.76 149.383C193.138 150.208 192.33 150.874 191.4 151.325C190.471 151.776 189.448 152 188.415 151.978C187.272 152.011 186.137 151.764 185.11 151.261C184.083 150.757 183.194 150.011 182.52 149.087C180.918 146.721 180.144 143.892 180.317 141.04V141.04ZM185.868 141.449C185.773 143.012 186.128 144.57 186.889 145.939C187.2 146.438 187.638 146.845 188.158 147.119C188.678 147.393 189.261 147.524 189.848 147.499C190.604 147.548 191.357 147.366 192.007 146.977C192.656 146.588 193.173 146.011 193.486 145.321V137.102C193.183 136.414 192.674 135.836 192.03 135.446C191.386 135.056 190.638 134.874 189.887 134.925C187.21 134.927 185.87 137.101 185.868 141.449V141.449Z" fill="#005191"/>
</g>
<defs>
<clipPath id="clip0_1_10">
<rect width="237.124" height="160" fill="white"/>
</clipPath>
</defs>
</svg>
